<?xml version="1.0" standalone="no"?>
<!DOCTYPE svg PUBLIC "-//W3C//DTD SVG 20010904//EN"
 "http://www.w3.org/TR/2001/REC-SVG-20010904/DTD/svg10.dtd">
<svg version="1.0" xmlns="http://www.w3.org/2000/svg"
 width="512.000000pt" height="512.000000pt" viewBox="0 0 512.000000 512.000000"
 preserveAspectRatio="xMidYMid meet">
<metadata>
Created by potrace 1.11, written by Peter Selinger 2001-2013
</metadata>
<g transform="translate(0.000000,512.000000) scale(0.100000,-0.100000)"
fill="#000000" stroke="none">
<path d="M2503 4050 c-25 -12 -278 -258 -739 -721 -615 -616 -702 -708 -706
-739 -12 -82 -29 -62 720 -812 764 -763 736 -739 819 -716 32 8 156 127 736
706 384 383 705 710 713 725 19 36 23 74 11 112 -11 33 -1382 1416 -1429 1441
-42 22 -83 23 -125 4z"/>
</g>
</svg>
